<?xml version="1.0" encoding="UTF-8" standalone="no"?>
<svg
   xmlns:dc="http://purl.org/dc/elements/1.1/"
   xmlns:cc="http://creativecommons.org/ns#"
   xmlns:rdf="http://www.w3.org/1999/02/22-rdf-syntax-ns#"
   xmlns:svg="http://www.w3.org/2000/svg"
   xmlns="http://www.w3.org/2000/svg"
   viewBox="0 0 1137.5 1025"
   height="1025"
   width="1137.5"
   xml:space="preserve"
   version="1.1"
   id="svg2"><metadata
     id="metadata8"><rdf:RDF><cc:Work
         rdf:about=""><dc:format>image/svg+xml</dc:format><dc:type
           rdf:resource="http://purl.org/dc/dcmitype/StillImage" /></cc:Work></rdf:RDF></metadata><defs
     id="defs6"><clipPath
       id="clipPath16"
       clipPathUnits="userSpaceOnUse"><path
         id="path18"
         d="M 0,820 910,820 910,0 0,0 0,820 Z" /></clipPath></defs><g
     transform="matrix(1.25,0,0,-1.25,0,1025)"
     id="g10"><g
       id="g12"><g
         clip-path="url(#clipPath16)"
         id="g14"><g
           transform="translate(258.0098,588.7793)"
           id="g20"><path
             id="path22"
             style="fill:#00629f;fill-opacity:1;fill-rule:nonzero;stroke:none"
             d="m 0,0 c 0,85.28 108.396,154.431 242.058,154.431 31.222,0 61.06,-3.774 88.463,-10.642 -48.124,23.742 -108.487,37.878 -174.041,37.878 -157.289,0 -284.758,-81.327 -284.758,-181.667 0,-100.333 127.469,-181.684 284.758,-181.684 65.578,0 125.962,14.151 174.095,37.914 -27.416,-6.877 -57.275,-10.654 -88.517,-10.654 C 108.396,-154.424 0,-85.29 0,0" /></g><g
           transform="translate(430.2393,676.5522)"
           id="g24"><path
             id="path26"
             style="fill:#606163;fill-opacity:1;fill-rule:nonzero;stroke:none"
             d="m 0,0 c -1.73,3.418 -4.917,5.129 -9.565,5.129 -9.83,0 -17.861,-11.961 -24.083,-35.885 -4.357,-16.758 -6.53,-29.848 -6.53,-39.264 0,-6.754 1.312,-11.462 3.936,-14.127 2.623,-2.671 6.192,-4.001 10.697,-4.001 5.176,0 8.774,1.438 10.804,4.311 2.025,2.872 5.064,10.898 9.112,24.071 3.077,9.836 5.213,18.775 6.41,26.819 1.2,8.044 1.807,14.942 1.807,20.695 C 2.588,-7.504 1.721,-3.42 0,0 m 23.18,-74.394 c -5.775,-19.339 -15.753,-36.472 -29.93,-51.393 -12.306,-13 -26.15,-22.759 -41.531,-29.254 -8.703,-3.669 -20.219,-6.875 -34.543,-9.628 l -1.353,6.494 c 18.231,6.506 33.575,17.298 46.029,32.388 7.724,9.252 13.724,19.296 18.004,30.137 -2.628,-1.253 -4.877,-2.15 -6.754,-2.69 -1.876,-0.546 -4.392,-0.814 -7.54,-0.814 -9.005,0 -16.995,3.497 -23.969,10.502 -6.982,7.005 -10.466,17.339 -10.466,31.01 0,19.259 5.644,35.867 16.935,49.83 11.292,13.962 24.251,20.943 38.884,20.943 13.95,0 24.303,-5.003 31.06,-15.007 6.748,-10.003 10.126,-23.549 10.126,-40.633 0,-10.176 -1.651,-20.801 -4.952,-31.885" /></g><g
           transform="translate(474.2676,607.4546)"
           id="g28"><path
             id="path30"
             style="fill:#606163;fill-opacity:1;fill-rule:nonzero;stroke:none"
             d="m 0,0 c 13.801,17.583 28.81,26.38 45.017,26.38 8.625,0 15.13,-2.357 19.524,-7.064 4.383,-4.713 6.582,-10.026 6.582,-15.945 0,-5.503 -1.469,-9.859 -4.394,-13.065 -2.926,-3.213 -6.376,-4.816 -10.35,-4.816 -3.004,0 -5.932,1.147 -8.782,3.439 -2.848,2.29 -4.274,5.693 -4.274,10.193 0,1.828 0.165,3.246 0.505,4.249 0.337,0.997 1.067,2.541 2.198,4.631 l 1.013,1.875 c 0.523,0.915 0.879,1.622 1.069,2.12 0.189,0.499 0.286,1.044 0.286,1.626 0,1.418 -0.606,2.523 -1.808,3.319 -1.195,0.789 -2.621,1.186 -4.272,1.186 -8.251,0 -16.093,-9.503 -23.518,-28.512 -6.603,-16.923 -9.902,-31.592 -9.902,-44.013 0,-5.664 0.974,-10.591 2.919,-14.759 2.929,-6.411 7.729,-9.616 14.408,-9.616 4.951,0 9.692,2.018 14.234,6.056 4.536,4.048 9.06,9.733 13.559,17.071 l 6.42,-4.749 C 53,-71.897 46.886,-79.864 42.088,-84.281 33.909,-91.701 24.38,-95.405 13.505,-95.405 c -8.251,0 -15.962,3.253 -23.127,9.746 -7.166,6.507 -10.744,16.503 -10.744,30.014 0,19.754 6.784,38.299 20.366,55.645" /></g><g
           transform="translate(605.1387,685.8193)"
           id="g32"><path
             id="path34"
             style="fill:#606163;fill-opacity:1;fill-rule:nonzero;stroke:none"
             d="m 0,0 c 3.004,-3.336 4.507,-7.38 4.507,-12.128 0,-4.755 -1.503,-8.822 -4.507,-12.194 -3.004,-3.377 -6.638,-5.063 -10.909,-5.063 -4.281,0 -7.937,1.686 -10.976,5.063 -3.041,3.372 -4.553,7.439 -4.553,12.194 0,4.748 1.512,8.792 4.553,12.128 3.039,3.335 6.695,5.004 10.976,5.004 C -6.638,5.004 -3.004,3.335 0,0 m -54.126,-145.419 c 0.52,2.576 1.312,5.996 2.362,10.258 l 13.842,57.515 c 0.151,0.663 0.28,1.329 0.394,1.994 0.112,0.664 0.172,1.293 0.172,1.881 0,3.414 -0.978,5.538 -2.928,6.376 -1.954,0.831 -5.516,1.376 -10.69,1.625 l 0,6.75 c 4.345,0.334 10.667,1.022 18.959,2.066 8.287,1.039 14.157,1.936 17.614,2.69 l 9.902,2.126 -17.893,-72.899 c -1.5,-6.254 -2.516,-10.587 -3.039,-13.009 -1.355,-6.161 -2.022,-10.163 -2.022,-12.003 0,-1.829 0.373,-3.015 1.12,-3.562 0.748,-0.546 1.578,-0.807 2.48,-0.807 2.324,0 5.209,2.209 8.663,6.624 3.447,4.418 6.489,9.047 9.118,13.879 l 5.061,-3.631 c -7.499,-12.254 -13.243,-20.505 -17.218,-24.755 -6.531,-7.006 -13.505,-10.495 -20.933,-10.495 -4.201,0 -7.974,1.436 -11.308,4.309 -3.336,2.873 -5.007,7.266 -5.007,13.191 0,2.076 0.448,5.377 1.351,9.877" /></g><g
           transform="translate(720.0186,597.48)"
           id="g36"><path
             id="path38"
             style="fill:#faa754;fill-opacity:1;fill-rule:nonzero;stroke:none"
             d="m 0,0 c 0.132,-1.53 0.32,-3.057 0.426,-4.587 3.338,-59.557 -39.83,-112.792 -107.305,-143.459 -0.461,-2.054 -0.616,-4.084 -1.244,-6.127 -41.391,-135.61 -165.006,-242.238 -319.297,-293.918 177.718,32.093 339.278,117.646 403.913,243.388 C 12.999,-133.705 21.745,-61.437 0,0" /></g></g></g></g></svg>