<?xml version="1.0" encoding="utf-8"?>
<svg id="svg" version="1.1" width="400" height="300" viewBox="0, 0, 400,300" xmlns="http://www.w3.org/2000/svg">
  <g id="svgg">
    <path id="path1" d="M 146.587 94.127 C 143.747 95.002 141.139 96.212 138.67 97.628 C 136.201 99.044 133.871 100.667 131.584 102.369 C 129.297 104.071 127.054 105.852 124.76 107.585 C 122.466 109.317 120.122 111.001 117.632 112.507 C 116.282 113.324 114.863 114.029 113.415 114.685 C 111.967 115.342 110.49 115.951 109.024 116.575 C 107.557 117.2 106.101 117.84 104.695 118.56 C 103.289 119.28 101.932 120.08 100.666 121.024 C 99.359 121.998 98.243 123.182 97.196 124.433 C 96.149 125.684 95.171 127.001 94.144 128.239 C 93.116 129.477 92.039 130.636 90.791 131.571 C 89.543 132.506 88.125 133.217 86.417 133.557 C 85.571 133.726 84.375 134.023 83.007 134.343 C 81.638 134.664 80.097 135.007 78.562 135.269 C 77.027 135.531 75.497 135.711 74.151 135.704 C 72.805 135.697 71.642 135.504 70.84 135.018 C 70.48 134.801 70.351 133.859 70.356 132.572 C 70.36 131.285 70.499 129.654 70.674 128.058 C 70.849 126.462 71.06 124.901 71.21 123.754 C 71.36 122.608 71.449 121.876 71.38 121.938 C 70.837 122.423 69.977 123.62 69.035 125.188 C 68.093 126.755 67.07 128.692 66.202 130.654 C 65.334 132.617 64.621 134.605 64.3 136.274 C 63.978 137.944 64.049 139.296 64.748 139.985 C 66.122 141.341 67.921 142.072 69.91 142.522 C 71.9 142.971 74.079 143.139 76.215 143.368 C 78.35 143.598 80.442 143.888 82.255 144.582 C 84.068 145.276 85.602 146.374 86.624 148.219 C 87.153 149.175 87.801 150.334 88.456 151.608 C 89.111 152.883 89.773 154.271 90.33 155.684 C 90.887 157.098 91.34 158.535 91.577 159.908 C 91.813 161.28 91.833 162.588 91.525 163.74 C 91.292 164.612 90.919 165.227 90.519 165.747 C 90.12 166.267 89.693 166.692 89.354 167.184 C 89.014 167.677 88.762 168.237 88.71 169.026 C 88.658 169.816 88.806 170.836 89.268 172.247 C 89.439 172.771 89.697 173.26 90.019 173.715 C 90.341 174.169 90.727 174.589 91.154 174.973 C 91.58 175.358 92.047 175.706 92.532 176.019 C 93.016 176.331 93.518 176.607 94.015 176.846 C 95.677 177.647 97.22 178.136 98.704 178.388 C 100.188 178.64 101.612 178.656 103.037 178.51 C 104.462 178.364 105.888 178.057 107.375 177.664 C 108.862 177.271 110.41 176.792 112.08 176.303 C 112.876 176.07 113.534 175.804 114.012 175.543 C 114.49 175.282 114.788 175.027 114.866 174.816 C 114.943 174.605 114.799 174.439 114.393 174.355 C 113.987 174.272 113.319 174.272 112.348 174.393 C 111.32 174.522 109.879 174.758 108.253 174.954 C 106.626 175.151 104.813 175.309 103.041 175.281 C 101.269 175.253 99.537 175.039 98.072 174.493 C 96.607 173.947 95.409 173.069 94.704 171.712 C 94.402 171.132 94.416 170.377 94.603 169.527 C 94.791 168.678 95.153 167.735 95.55 166.78 C 95.947 165.826 96.378 164.859 96.703 163.963 C 97.028 163.067 97.247 162.242 97.221 161.568 C 97.161 160.052 96.791 158.517 96.287 156.974 C 95.783 155.432 95.144 153.881 94.547 152.334 C 93.949 150.787 93.394 149.243 93.055 147.714 C 92.717 146.185 92.596 144.67 92.868 143.181 C 93.53 139.559 95.691 136.291 98.725 133.306 C 101.759 130.322 105.668 127.621 109.827 125.133 C 113.986 122.646 118.396 120.372 122.433 118.241 C 126.469 116.11 130.132 114.122 132.798 112.207 C 133.766 111.511 134.994 110.539 136.389 109.477 C 137.784 108.414 139.346 107.262 140.984 106.205 C 142.622 105.147 144.335 104.186 146.031 103.506 C 147.727 102.826 149.406 102.428 150.976 102.498 C 152.545 102.567 154.084 103.091 155.565 103.889 C 157.046 104.688 158.47 105.762 159.808 106.934 C 161.146 108.105 162.398 109.374 163.538 110.562 C 164.677 111.75 165.703 112.856 166.588 113.704 C 169.285 116.286 171.652 118.645 173.888 120.843 C 176.124 123.04 178.228 125.075 180.4 127.009 C 182.573 128.942 184.813 130.774 187.321 132.565 C 189.829 134.356 192.604 136.106 195.846 137.875 C 198.772 139.471 201.219 140.649 203.444 141.539 C 205.669 142.428 207.673 143.029 209.713 143.472 C 211.754 143.915 213.83 144.2 216.201 144.457 C 218.573 144.714 221.238 144.943 224.456 145.276 C 225.599 145.394 226.677 145.42 227.717 145.433 C 228.757 145.446 229.759 145.446 230.752 145.513 C 231.745 145.579 232.727 145.712 233.728 145.99 C 234.73 146.269 235.749 146.692 236.816 147.341 C 238.538 148.388 239.977 149.691 241.208 151.166 C 242.44 152.641 243.464 154.288 244.358 156.023 C 245.252 157.757 246.017 159.581 246.728 161.409 C 247.439 163.237 248.097 165.071 248.78 166.826 C 248.874 167.069 248.97 167.312 249.066 167.554 C 249.163 167.797 249.261 168.039 249.361 168.28 C 249.46 168.521 249.562 168.761 249.665 169.001 C 249.769 169.24 249.874 169.478 249.983 169.716 C 250.017 169.791 250.316 170.343 250.752 171.123 C 251.187 171.903 251.76 172.911 252.343 173.902 C 252.926 174.892 253.519 175.864 253.996 176.57 C 254.472 177.276 254.832 177.717 254.949 177.644 C 255.234 177.467 255.209 176.756 255.006 175.771 C 254.803 174.787 254.422 173.528 253.995 172.255 C 253.568 170.982 253.096 169.695 252.71 168.652 C 252.323 167.61 252.023 166.812 251.942 166.519 C 251.43 164.672 250.947 162.755 250.421 160.83 C 249.894 158.906 249.324 156.972 248.639 155.093 C 247.954 153.213 247.154 151.386 246.166 149.674 C 245.179 147.961 244.004 146.363 242.57 144.942 C 241.287 143.67 240.041 142.745 238.786 142.056 C 237.531 141.366 236.269 140.912 234.955 140.583 C 233.641 140.254 232.277 140.049 230.816 139.859 C 229.356 139.668 227.801 139.49 226.107 139.216 C 222.955 138.705 220.392 138.371 218.145 138.049 C 215.898 137.726 213.967 137.416 212.082 136.952 C 210.197 136.488 208.356 135.87 206.29 134.934 C 204.223 133.997 201.93 132.741 199.138 131.002 C 194.705 128.239 190.648 124.474 186.695 120.4 C 182.741 116.327 178.892 111.945 174.875 107.947 C 170.858 103.95 166.674 100.337 162.05 97.802 C 157.426 95.268 152.362 93.812 146.587 94.127 M 151.83 123.556 C 151.91 124.198 152.16 125.18 152.452 126.312 C 152.744 127.443 153.078 128.724 153.325 129.964 C 153.572 131.204 153.732 132.402 153.677 133.37 C 153.621 134.337 153.35 135.073 152.733 135.387 C 151.859 135.833 150.93 136.051 149.967 136.122 C 149.005 136.192 148.009 136.115 147 135.97 C 145.992 135.825 144.97 135.612 143.957 135.411 C 142.944 135.21 141.938 135.021 140.961 134.924 C 140.622 134.891 139.521 134.777 138.003 134.621 C 136.486 134.464 134.551 134.266 132.543 134.062 C 130.535 133.859 128.453 133.651 126.641 133.476 C 124.829 133.3 123.287 133.158 122.358 133.086 C 120.968 132.978 119.49 133.239 118.133 133.783 C 116.776 134.327 115.539 135.154 114.628 136.179 C 113.718 137.204 113.135 138.427 113.086 139.763 C 113.036 141.098 113.521 142.547 114.745 144.022 C 116.006 145.541 118.515 146.237 121.63 146.417 C 124.745 146.597 128.466 146.261 132.151 145.715 C 135.836 145.17 139.484 144.415 142.454 143.757 C 145.424 143.099 147.716 142.538 148.687 142.381 C 148.752 142.371 149.317 142.309 150.152 142.195 C 150.986 142.081 152.09 141.915 153.23 141.7 C 154.371 141.485 155.549 141.219 156.533 140.904 C 157.516 140.59 158.305 140.227 158.666 139.815 C 159.273 139.125 159.338 137.979 159.07 136.61 C 158.803 135.24 158.203 133.646 157.481 132.06 C 156.759 130.474 155.915 128.896 155.158 127.557 C 154.402 126.218 153.734 125.119 153.363 124.49 C 153.287 124.362 153.176 124.209 153.047 124.06 C 152.917 123.911 152.769 123.766 152.619 123.652 C 152.469 123.538 152.317 123.454 152.18 123.429 C 152.043 123.404 151.921 123.437 151.83 123.556 M 138.202 178.906 C 137.559 179.695 136.801 180.598 136.379 181.355 C 135.957 182.111 135.562 182.729 135.287 183.508 C 135.013 184.287 134.749 185.209 134.548 186.064 C 134.348 186.92 134.429 187.325 134.228 188.311 C 134.155 188.674 134.06 191.266 134.129 192.147 C 134.198 193.028 134.138 195.029 134.234 195.842 C 134.33 196.655 134.159 197.769 133.985 198.055 C 133.811 198.341 132.711 196.925 132.219 196.09 C 131.953 195.637 130.739 192.557 130.439 191.652 C 130.139 190.747 129.902 189.608 129.65 188.517 C 129.399 187.426 129.134 186.384 128.777 185.674 C 128.421 184.963 127.974 184.585 127.358 184.822 C 127.019 184.953 126.621 185.247 126.229 185.638 C 125.838 186.029 125.454 186.517 125.143 187.037 C 124.832 187.557 124.595 188.109 124.497 188.626 C 124.4 189.143 124.626 190.515 124.702 190.964 C 124.783 191.447 125.073 193.557 125.321 193.633 C 125.57 193.709 126.052 190.818 126.121 190.542 C 126.281 189.902 126.472 188.325 126.736 188.46 C 127 188.596 127.466 191.18 127.657 191.546 C 128.157 192.501 128.597 193.653 129.055 194.867 C 129.513 196.08 129.989 197.354 130.561 198.551 C 131.133 199.748 131.801 200.868 132.643 201.773 C 133.484 202.678 135.201 204.186 135.387 204.037 C 135.628 203.845 136.039 202.643 136.394 201.494 C 136.749 200.345 136.934 199.616 137.144 198.144 C 137.354 196.672 137.314 195.464 137.351 194.541 C 137.388 193.618 137.393 188.409 137.697 189.153 C 137.912 189.679 139.142 194.419 139.583 195.15 C 140.024 195.88 140.518 196.761 141.038 197.571 C 141.559 198.381 142.105 199.121 142.648 199.572 C 143.191 200.023 144.078 201.128 144.588 200.78 C 144.99 200.507 144.983 199.055 145.307 198.458 C 145.631 197.862 145.941 197.177 146.284 196.548 C 146.628 195.92 147.005 195.348 147.466 194.977 C 147.926 194.607 148.469 194.438 149.143 194.616 C 149.533 194.719 149.936 194.928 150.336 195.198 C 150.736 195.469 151.132 195.801 151.507 196.151 C 151.882 196.501 152.235 196.869 152.549 197.211 C 152.863 197.553 153.138 197.869 153.355 198.114 C 153.482 198.258 153.63 198.472 153.785 198.702 C 153.941 198.932 154.104 199.178 154.26 199.384 C 154.417 199.591 154.567 199.757 154.698 199.828 C 154.829 199.899 154.94 199.875 155.018 199.7 C 155.255 199.169 155.433 198.445 155.63 197.679 C 155.827 196.913 156.043 196.105 156.355 195.405 C 156.668 194.705 157.076 194.113 157.659 193.778 C 158.241 193.444 158.998 193.368 160.005 193.699 C 160.381 193.823 160.997 194.379 161.714 195.141 C 162.43 195.903 163.248 196.871 164.026 197.817 C 164.805 198.764 165.544 199.689 166.106 200.367 C 166.668 201.046 167.052 201.476 167.118 201.432 C 168.065 200.804 168.827 199.753 169.518 198.504 C 170.209 197.255 170.829 195.809 171.494 194.392 C 172.159 192.975 172.869 191.587 173.738 190.454 C 174.607 189.321 175.635 188.444 176.938 188.048 C 177.048 188.015 177.249 188.196 177.49 188.488 C 177.732 188.781 178.013 189.183 178.281 189.591 C 178.55 189.999 178.806 190.412 178.997 190.725 C 179.188 191.039 179.314 191.254 179.323 191.264 C 179.675 191.666 180.072 192.066 180.505 192.447 C 180.937 192.828 181.405 193.189 181.895 193.513 C 182.385 193.838 182.898 194.125 183.422 194.357 C 183.946 194.59 184.482 194.768 185.016 194.873 C 185.686 195.005 186.16 194.899 186.524 194.656 C 186.888 194.412 187.142 194.032 187.371 193.614 C 187.601 193.196 187.807 192.742 188.074 192.351 C 188.341 191.961 188.67 191.635 189.145 191.473 C 189.852 191.233 190.512 191.255 191.147 191.429 C 191.781 191.603 192.39 191.929 192.992 192.297 C 193.595 192.666 194.192 193.077 194.804 193.42 C 195.415 193.764 196.041 194.04 196.701 194.139 C 197.274 194.225 197.745 194.104 198.159 193.878 C 198.574 193.652 198.933 193.322 199.28 192.991 C 199.628 192.66 199.965 192.327 200.336 192.096 C 200.708 191.866 201.113 191.737 201.598 191.813 C 202.073 191.888 202.532 192.098 202.978 192.386 C 203.424 192.673 203.856 193.038 204.278 193.421 C 204.7 193.805 205.111 194.207 205.513 194.57 C 205.916 194.934 206.311 195.258 206.7 195.485 C 207.67 196.051 208.398 196.127 208.989 195.907 C 209.579 195.687 210.032 195.17 210.451 194.551 C 210.87 193.932 211.255 193.211 211.711 192.581 C 212.166 191.951 212.692 191.412 213.391 191.158 C 213.956 190.954 214.501 190.944 215.035 191.045 C 215.569 191.145 216.093 191.355 216.614 191.589 C 217.136 191.824 217.656 192.082 218.182 192.278 C 218.708 192.475 219.241 192.609 219.789 192.596 C 219.82 192.596 220.039 192.49 220.346 192.327 C 220.654 192.163 221.05 191.942 221.434 191.71 C 221.819 191.478 222.193 191.235 222.455 191.029 C 222.717 190.822 222.867 190.652 222.806 190.564 C 222.753 190.487 222.525 190.446 222.207 190.426 C 221.889 190.405 221.481 190.405 221.067 190.41 C 220.653 190.416 220.234 190.426 219.893 190.425 C 219.552 190.424 219.29 190.412 219.191 190.373 C 218.766 190.208 218.406 189.964 218.071 189.695 C 217.737 189.426 217.427 189.13 217.103 188.86 C 216.779 188.591 216.441 188.346 216.048 188.178 C 215.656 188.01 215.209 187.919 214.668 187.956 C 214.016 188.001 213.4 188.237 212.804 188.561 C 212.209 188.886 211.633 189.299 211.059 189.697 C 210.486 190.096 209.915 190.481 209.329 190.748 C 208.743 191.016 208.143 191.166 207.51 191.097 C 207.011 191.043 206.63 190.815 206.301 190.498 C 205.973 190.182 205.698 189.777 205.41 189.369 C 205.123 188.961 204.823 188.55 204.447 188.22 C 204.07 187.891 203.617 187.644 203.021 187.563 C 202.395 187.479 201.774 187.55 201.159 187.695 C 200.544 187.841 199.935 188.062 199.331 188.276 C 198.728 188.491 198.13 188.7 197.538 188.823 C 196.945 188.946 196.359 188.982 195.777 188.85 C 195.274 188.737 194.818 188.504 194.383 188.219 C 193.949 187.934 193.535 187.598 193.116 187.277 C 192.697 186.957 192.273 186.652 191.816 186.431 C 191.359 186.21 190.871 186.072 190.323 186.086 C 189.818 186.099 189.238 186.314 188.624 186.611 C 188.01 186.908 187.362 187.286 186.719 187.624 C 186.076 187.962 185.438 188.261 184.845 188.399 C 184.252 188.537 183.703 188.514 183.238 188.21 C 182.973 188.037 182.913 187.628 182.975 187.09 C 183.037 186.552 183.221 185.884 183.446 185.192 C 183.672 184.501 183.937 183.787 184.162 183.155 C 184.386 182.524 184.569 181.975 184.628 181.615 C 184.635 181.576 184.674 181.43 184.722 181.234 C 184.77 181.039 184.827 180.795 184.869 180.558 C 184.912 180.322 184.939 180.093 184.927 179.931 C 184.915 179.768 184.864 179.671 184.75 179.696 C 183.569 179.962 182.358 180.354 181.155 180.849 C 179.952 181.343 178.756 181.941 177.603 182.617 C 176.45 183.294 175.34 184.05 174.309 184.862 C 173.277 185.674 173.022 186.183 172.183 187.083 C 171.889 187.399 171.189 188.376 170.75 188.921 C 170.311 189.466 169.911 190.342 169.648 191.286 C 169.385 192.23 169.179 192.682 168.8 193.666 C 166.874 198.659 165.679 194.263 165.312 193.794 C 164.789 193.127 164.153 191.146 163.677 190.498 C 163.201 189.85 162.839 189.082 162.499 188.314 C 162.159 187.546 161.84 186.779 161.45 186.132 C 161.059 185.486 160.596 184.96 159.968 184.676 C 159.751 184.578 159.327 184.871 158.789 185.372 C 158.251 185.874 157.599 186.583 156.922 187.317 C 156.246 188.051 155.545 188.81 154.911 189.41 C 154.278 190.01 153.711 190.451 153.301 190.549 C 152.472 190.75 151.889 190.605 151.459 190.256 C 151.029 189.907 150.753 189.353 150.537 188.734 C 150.321 188.115 150.165 187.43 149.977 186.819 C 149.788 186.209 149.567 185.673 149.22 185.35 C 149.196 185.328 148.924 185.771 148.492 186.423 C 148.06 187.076 147.468 187.939 146.804 188.756 C 146.14 189.573 145.405 190.344 144.686 190.814 C 143.967 191.284 143.264 191.453 142.666 191.064 C 141.787 190.493 141.223 189.248 140.862 187.707 C 140.501 186.167 140.344 184.332 140.279 182.58 C 140.214 180.828 140.242 179.16 140.25 177.953 C 140.259 176.746 140.248 176.001 140.107 176.095 M 117.759 185.211 C 117.769 185.799 118.21 188.135 118.609 188.66 C 119.008 189.185 120.548 191.657 121.147 192.543 C 121.746 193.429 122.628 194.472 122.83 194.571 C 123.032 194.669 123.993 194.772 123.743 194.338 C 123.301 193.571 121.909 191.611 121.481 190.782 C 121.053 189.953 120.208 188.47 119.727 187.842 C 119.246 187.214 118.813 186.943 118.874 185.56 C 118.935 184.177 118.101 182.933 117.888 182.057 M 385.989 289.722 C 386.004 290.536 386.014 290.726 386.02 290.607 C 386.027 290.488 386.03 290.06 386.029 289.639 C 386.029 289.218 386.025 288.804 386.018 288.713 C 386.011 288.621 386.001 288.852 385.989 289.722" stroke="none" fill="#0c0c0c" fill-rule="evenodd"/>
    <path style="fill: rgb(216, 216, 216); stroke: rgb(0, 0, 0);" d="M 134.6 190.578"/>
  </g>
</svg>