<?xml version="1.0" encoding="utf-8"?>
<!-- Generator: Adobe Illustrator 16.0.0, SVG Export Plug-In . SVG Version: 6.00 Build 0)  -->
<!DOCTYPE svg PUBLIC "-//W3C//DTD SVG 1.1//EN" "http://www.w3.org/Graphics/SVG/1.1/DTD/svg11.dtd">
<svg version="1.1" id="Layer_1" xmlns="http://www.w3.org/2000/svg" xmlns:xlink="http://www.w3.org/1999/xlink" x="0px" y="0px"
	 width="131px" height="98px" viewBox="0 0 131 98" enable-background="new 0 0 131 98" xml:space="preserve">
<g>
	<rect x="3.2" y="2" fill="#FFFFFF" width="125" height="94"/>
	<g>
		<polyline fill="none" stroke="#414042" stroke-miterlimit="10" points="128.2,90.5 128.2,96 122.8,96 		"/>
		
			<line fill="none" stroke="#414042" stroke-miterlimit="10" stroke-dasharray="10.3636,10.3636" x1="112.4" y1="96" x2="13.9" y2="96"/>
		<polyline fill="none" stroke="#414042" stroke-miterlimit="10" points="8.8,96 3.2,96 3.2,90.5 		"/>
		
			<line fill="none" stroke="#414042" stroke-miterlimit="10" stroke-dasharray="11.8571,11.8571" x1="3.2" y1="78.6" x2="3.2" y2="13.4"/>
		<polyline fill="none" stroke="#414042" stroke-miterlimit="10" points="3.2,7.5 3.2,2 8.8,2 		"/>
		
			<line fill="none" stroke="#414042" stroke-miterlimit="10" stroke-dasharray="10.3636,10.3636" x1="19.1" y1="2" x2="117.6" y2="2"/>
		<polyline fill="none" stroke="#414042" stroke-miterlimit="10" points="122.8,2 128.2,2 128.2,7.5 		"/>
		
			<line fill="none" stroke="#414042" stroke-miterlimit="10" stroke-dasharray="11.8571,11.8571" x1="128.2" y1="19.4" x2="128.2" y2="84.6"/>
	</g>
</g>
<rect x="50.2" y="32" fill="#E6E7E8" width="77.5" height="63.5"/>
<line fill="none" stroke="#414042" stroke-miterlimit="10" stroke-dasharray="11" x1="3.2" y1="32" x2="128.2" y2="32"/>
<line fill="none" stroke="#414042" stroke-miterlimit="10" stroke-dasharray="11" x1="50.2" y1="32" x2="50.2" y2="96"/>
<rect x="12.2" y="11.5" fill="#B5B5B5" width="24.5" height="10.5"/>
</svg>
