<?xml version="1.0" encoding="utf-8"?>
<!-- Generator: Adobe Illustrator 16.0.0, SVG Export Plug-In . SVG Version: 6.00 Build 0)  -->
<!DOCTYPE svg PUBLIC "-//W3C//DTD SVG 1.1//EN" "http://www.w3.org/Graphics/SVG/1.1/DTD/svg11.dtd">
<svg version="1.1" id="Layer_1" xmlns="http://www.w3.org/2000/svg" xmlns:xlink="http://www.w3.org/1999/xlink" x="0px" y="0px"
	 width="131px" height="98px" viewBox="0 0 131 98" enable-background="new 0 0 131 98" xml:space="preserve">
<g>
	<rect x="3" y="2" fill="#FFFFFF" width="125" height="94"/>
	<g>
		<polyline fill="none" stroke="#414042" stroke-miterlimit="10" points="128,90.5 128,96 122.5,96 		"/>
		
			<line fill="none" stroke="#414042" stroke-miterlimit="10" stroke-dasharray="10.3636,10.3636" x1="112.1" y1="96" x2="13.7" y2="96"/>
		<polyline fill="none" stroke="#414042" stroke-miterlimit="10" points="8.5,96 3,96 3,90.5 		"/>
		
			<line fill="none" stroke="#414042" stroke-miterlimit="10" stroke-dasharray="11.8571,11.8571" x1="3" y1="78.6" x2="3" y2="13.4"/>
		<polyline fill="none" stroke="#414042" stroke-miterlimit="10" points="3,7.5 3,2 8.5,2 		"/>
		
			<line fill="none" stroke="#414042" stroke-miterlimit="10" stroke-dasharray="10.3636,10.3636" x1="18.9" y1="2" x2="117.3" y2="2"/>
		<polyline fill="none" stroke="#414042" stroke-miterlimit="10" points="122.5,2 128,2 128,7.5 		"/>
		
			<line fill="none" stroke="#414042" stroke-miterlimit="10" stroke-dasharray="11.8571,11.8571" x1="128" y1="19.4" x2="128" y2="84.6"/>
	</g>
</g>
<rect x="24.2" y="32" fill="#E6E7E8" width="103.3" height="63.4"/>
<line fill="none" stroke="#414042" stroke-miterlimit="10" stroke-dasharray="11" x1="24.2" y1="32" x2="128" y2="32"/>
<line fill="none" stroke="#414042" stroke-miterlimit="10" stroke-dasharray="7" x1="23.7" y1="2" x2="23.7" y2="96"/>
<rect x="29.7" y="11.8" fill="#B5B5B5" width="24.5" height="10.5"/>
</svg>
