<?xml version="1.0" encoding="UTF-8"?>
<!DOCTYPE svg PUBLIC "-//W3C//DTD SVG 1.1//EN"
  "http://www.w3.org/Graphics/SVG/1.1/DTD/svg11.dtd">
<!-- Created with Inkpad (http://www.taptrix.com/) --><svg xmlns:inkpad="http://taptrix.com/inkpad/svg_extensions" height="682pt" xmlns:xlink="http://www.w3.org/1999/xlink" xmlns="http://www.w3.org/2000/svg" width="1198pt" version="1.1" viewBox="0,0,1198,682">
<defs/>
<g id="Untitled" inkpad:layerName="Untitled">
<path d="M1108.37+559.431C1108.37+547.802+1117.8+538.374+1129.43+538.374C1141.06+538.374+1150.49+547.802+1150.49+559.431C1150.49+571.06+1141.06+580.488+1129.43+580.488C1117.8+580.488+1108.37+571.06+1108.37+559.431Z" opacity="1" fill="#000000"/>
<path d="M1148.21+506.992C1148.21+493.162+1159.42+481.951+1173.25+481.951C1187.08+481.951+1198.29+493.162+1198.29+506.992C1198.29+520.821+1187.08+532.033+1173.25+532.033C1159.42+532.033+1148.21+520.821+1148.21+506.992Z" opacity="1" fill="#000000"/>
<path d="M1166.26+575.447C1166.26+569.61+1170.99+564.878+1176.83+564.878C1182.67+564.878+1187.4+569.61+1187.4+575.447C1187.4+581.284+1182.67+586.016+1176.83+586.016C1170.99+586.016+1166.26+581.284+1166.26+575.447Z" opacity="1" fill="#000000"/>
<g opacity="1">
<path d="M0+378.049M463.902+682.276C397.317+682.276+343.415+628.374+343.415+561.789C343.415+495.203+397.48+441.138+464.065+441.138L463.902+682.276Z" opacity="1" fill="#000000"/>
<path d="M0+378.049M464.065+468.374L464.065+501.626L464.065+613.577L464.065+654.878C412.439+654.878+370.65+613.171+370.65+561.463C370.65+510.081+412.52+468.293+464.065+468.374Z" opacity="1" fill="#000000"/>
<path d="M0+378.049M464.065+501.707L464.065+613.659L412.439+569.593C407.724+565.447+407.398+558.211+411.789+553.821L463.984+501.626L464.065+501.707Z" opacity="1" fill="#000000"/>
</g>
</g>
<g id="XMLID_60_" inkpad:layerName="XMLID_60_">
<path d="M0+378.049M549.919+508.943L549.919+544.065L617.642+544.065L617.642+584.146L549.919+584.146L549.919+651.057L508.293+651.057L508.293+468.943L618.943+468.943L618.943+508.943L549.919+508.943Z" opacity="1" fill="#000000"/>
<path d="M0+378.049M720.406+518.293L720.406+562.52C704.309+559.919+681.301+566.423+681.301+592.195L681.301+651.057L642.276+651.057L642.276+520.976L681.301+520.976L681.301+544.146C686.585+526.667+703.984+518.293+720.406+518.293Z" opacity="1" fill="#000000"/>
<path d="M0+378.049M800.813+619.837C811.463+619.837+820.65+615.61+825.772+609.919L857.073+627.886C844.309+645.61+825.041+654.715+800.325+654.715C755.854+654.715+728.211+624.797+728.211+585.935C728.211+547.154+756.341+517.154+797.398+517.154C835.447+517.154+863.496+546.585+863.496+585.935C863.496+591.382+863.008+596.585+861.951+601.545L769.593+601.545C774.553+615.122+786.504+619.837+800.813+619.837ZM824.797+572.439C820.569+557.398+808.943+551.87+797.236+551.87C782.439+551.87+772.52+559.106+768.862+572.439L824.797+572.439Z" opacity="1" fill="#000000"/>
<path d="M0+378.049M981.545+612.033C981.545+641.951+955.528+654.715+927.398+654.715C901.382+654.715+881.545+644.797+871.382+623.74L905.203+604.472C908.618+614.39+915.854+619.837+927.398+619.837C936.748+619.837+941.382+616.911+941.382+611.789C941.382+597.48+877.317+605.041+877.317+560C877.317+531.626+901.22+517.317+928.293+517.317C949.431+517.317+968.13+526.667+979.024+545.203L945.772+563.171C942.114+556.423+936.911+551.707+928.374+551.707C921.626+551.707+917.398+554.309+917.398+558.943C917.48+573.74+981.545+563.902+981.545+612.033Z" opacity="1" fill="#000000"/>
<path d="M0+378.049M1125.93+571.138L1125.93+651.057L1086.91+651.057L1086.91+576.829C1086.91+560.732+1076.75+553.171+1064.23+553.171C1049.92+553.171+1040.08+561.463+1040.08+580L1040.08+651.057L1000.98+651.057L1000.98+468.862L1040.08+468.862L1040.08+533.171C1047.07+523.496+1060.16+517.317+1077.32+517.317C1103.58+517.236+1125.93+536.016+1125.93+571.138Z" opacity="1" fill="#000000"/>
</g>
</svg>
