<?xml version="1.0" encoding="utf-8"?>
<svg viewBox="0 0 1383 300" style="enable-background:new 390 76 1230 300;" xmlns="http://www.w3.org/2000/svg">
  <defs>
    <style type="text/css">
	.st0{fill:#FFFFFF;}
	.st1{fill:#F39208;}
	.st2{fill:#FCC010;}
	.st3{fill:#F49619;}
	.st4{fill:#EC630E;}
</style>
  </defs>
  <g transform="matrix(1, 0, 0, 1, -215.868057, -26.642225)">
    <circle id="XMLID_2_" class="st0" cx="1411.92" cy="94.232" r="25.9"/>
    <circle id="XMLID_19_" class="st1" cx="1471.306" cy="60.544" r="30.8"/>
    <circle id="XMLID_20_" class="st0" cx="1464.144" cy="117.008" r="13"/>
  </g>
  <g transform="matrix(1, 0, 0, 1, -434.997437, 2.096187)">
    <path id="XMLID_59_" class="st2" d="M 586.112 296.38 C 504.212 296.38 437.912 230.08 437.912 148.18 C 437.912 66.28 504.412 -0.22 586.312 -0.22 L 586.112 296.38 Z"/>
    <path id="XMLID_58_" class="st3" d="M 586.312 41.062 L 586.312 81.962 L 586.312 219.662 L 586.312 270.462 C 522.812 270.462 471.412 219.162 471.412 155.562 C 471.412 92.362 522.912 40.962 586.312 41.062 Z"/>
    <path id="XMLID_57_" class="st4" d="M 586.312 82.062 L 586.312 219.762 L 522.812 165.562 C 517.012 160.462 516.612 151.562 522.012 146.162 L 586.212 81.962 L 586.312 82.062 Z"/>
  </g>
  <path d="M 669.221 199.444 L 669.221 174.844 L 715.271 174.844 L 715.271 199.444 L 709.271 199.444 L 680.321 251.344 L 680.321 266.944 L 687.821 266.944 L 687.821 291.544 L 630.821 291.544 L 630.821 266.944 L 638.321 266.944 L 638.321 251.344 L 608.471 199.444 L 602.471 199.444 L 602.471 174.844 L 660.521 174.844 L 660.521 199.444 L 655.271 199.444 L 664.121 222.694 L 665.621 222.694 L 674.471 199.444 L 669.221 199.444 ZM 794.621 266.944 L 801.221 266.944 L 801.221 291.544 L 761.621 291.544 L 761.621 281.344 C 759.421 284.544 756.344 287.394 752.391 289.894 C 748.444 292.394 743.621 293.644 737.921 293.644 C 730.421 293.644 724.521 291.644 720.221 287.644 C 715.921 283.644 713.771 277.994 713.771 270.694 C 713.771 251.794 729.821 242.094 761.921 241.594 C 761.621 238.194 760.321 235.871 758.021 234.624 C 755.721 233.371 751.821 232.744 746.321 232.744 C 741.821 232.744 736.994 233.217 731.841 234.164 C 726.694 235.117 721.971 236.394 717.671 237.994 L 717.671 210.394 C 722.971 209.094 728.721 208.044 734.921 207.244 C 741.121 206.444 747.171 206.044 753.071 206.044 C 767.971 206.044 778.621 208.744 785.021 214.144 C 791.421 219.544 794.621 227.894 794.621 239.194 L 794.621 266.944 Z M 761.621 257.344 L 761.621 256.444 C 757.121 256.444 753.647 257.044 751.201 258.244 C 748.747 259.444 747.521 261.444 747.521 264.244 C 747.521 265.944 748.044 267.317 749.091 268.364 C 750.144 269.417 751.621 269.944 753.521 269.944 C 756.121 269.944 758.121 268.844 759.521 266.644 C 760.921 264.444 761.621 261.344 761.621 257.344 ZM 882.07 246.994 L 896.47 266.944 L 902.92 266.944 L 902.92 291.544 L 866.17 291.544 L 850.72 262.744 L 847.12 262.744 L 847.12 291.544 L 806.02 291.544 L 806.02 266.944 L 812.62 266.944 L 812.62 199.444 L 806.02 199.444 L 806.02 174.844 L 847.12 174.844 L 847.12 235.744 L 850.72 235.744 L 869.32 208.144 L 900.97 208.144 L 900.97 232.744 L 894.82 232.744 L 882.07 246.994 Z" transform="matrix(1.4916679859161377, 0, 0.043657999485731125, 1.9771850109100342, -739.194580078125, -302.75592041015625)" style="fill: rgb(254, 254, 254); white-space: pre;"/>
  <path d="M 727.439 201.579 L 727.439 176.979 L 775.439 176.979 L 775.439 201.579 L 769.439 201.579 L 747.089 293.679 L 702.239 293.679 L 688.589 228.879 L 687.089 228.879 L 672.689 293.679 L 627.839 293.679 L 603.989 201.579 L 597.989 201.579 L 597.989 176.979 L 653.489 176.979 L 653.489 201.579 L 647.789 201.579 L 653.639 239.829 L 655.139 239.829 L 669.389 176.979 L 712.589 176.979 L 725.789 239.829 L 727.289 239.829 L 733.139 201.579 L 727.439 201.579 ZM 814.138 295.779 C 799.938 295.779 788.838 292.056 780.838 284.609 C 772.838 277.156 768.838 266.279 768.838 251.979 C 768.838 237.679 772.838 226.802 780.838 219.349 C 788.838 211.902 799.938 208.179 814.138 208.179 C 828.538 208.179 839.688 211.956 847.588 219.509 C 855.488 227.056 859.438 237.879 859.438 251.979 C 859.438 266.279 855.438 277.156 847.438 284.609 C 839.438 292.056 828.338 295.779 814.138 295.779 Z M 814.138 269.079 C 817.038 269.079 819.211 268.302 820.658 266.749 C 822.111 265.202 822.838 262.779 822.838 259.479 L 822.838 244.479 C 822.838 241.179 822.111 238.752 820.658 237.199 C 819.211 235.652 817.038 234.879 814.138 234.879 C 811.238 234.879 809.065 235.652 807.618 237.199 C 806.165 238.752 805.438 241.179 805.438 244.479 L 805.438 259.479 C 805.438 262.779 806.165 265.202 807.618 266.749 C 809.065 268.302 811.238 269.079 814.138 269.079 ZM 928.287 208.179 C 930.287 208.179 932.187 208.379 933.987 208.779 C 935.787 209.179 937.287 209.679 938.487 210.279 L 938.487 238.929 C 934.387 237.229 929.987 236.379 925.287 236.379 C 918.987 236.379 914.137 238.029 910.737 241.329 C 907.337 244.629 905.637 249.529 905.637 256.029 L 905.637 269.079 L 919.137 269.079 L 919.137 293.679 L 864.537 293.679 L 864.537 269.079 L 871.137 269.079 L 871.137 234.879 L 864.537 234.879 L 864.537 210.279 L 905.637 210.279 L 905.637 221.229 C 908.437 217.029 911.637 213.802 915.237 211.549 C 918.837 209.302 923.187 208.179 928.287 208.179 ZM 1019.337 249.129 L 1033.737 269.079 L 1040.187 269.079 L 1040.187 293.679 L 1003.437 293.679 L 987.987 264.879 L 984.387 264.879 L 984.387 293.679 L 943.287 293.679 L 943.287 269.079 L 949.887 269.079 L 949.887 201.579 L 943.287 201.579 L 943.287 176.979 L 984.387 176.979 L 984.387 237.879 L 987.987 237.879 L 1006.587 210.279 L 1038.237 210.279 L 1038.237 234.879 L 1032.087 234.879 L 1019.337 249.129 ZM 1081.436 295.779 C 1068.836 295.779 1056.686 293.779 1044.986 289.779 L 1044.986 267.579 L 1069.286 267.579 L 1069.286 269.079 C 1069.286 273.879 1072.336 276.279 1078.436 276.279 C 1083.836 276.279 1086.536 274.429 1086.536 270.729 C 1086.536 268.729 1085.759 267.229 1084.206 266.229 C 1082.659 265.229 1079.936 264.379 1076.036 263.679 L 1068.536 262.329 C 1052.836 259.529 1044.986 250.629 1044.986 235.629 C 1044.986 226.929 1048.286 220.179 1054.886 215.379 C 1061.486 210.579 1070.386 208.179 1081.586 208.179 C 1094.086 208.179 1104.636 210.279 1113.236 214.479 L 1113.236 235.329 L 1090.436 235.329 L 1090.436 233.829 C 1090.436 231.829 1089.763 230.306 1088.416 229.259 C 1087.063 228.206 1085.086 227.679 1082.486 227.679 C 1077.486 227.679 1074.986 229.279 1074.986 232.479 C 1074.986 234.179 1075.686 235.479 1077.086 236.379 C 1078.486 237.279 1081.036 238.129 1084.736 238.929 L 1093.286 240.579 C 1102.186 242.279 1108.536 245.429 1112.336 250.029 C 1116.136 254.629 1118.036 260.529 1118.036 267.729 C 1118.036 276.829 1114.859 283.779 1108.506 288.579 C 1102.159 293.379 1093.136 295.779 1081.436 295.779 Z" transform="matrix(1.386765956878662, 0, 0.043561000376939774, 1.972890019416809, -219.9009246826172, -306.2502136230469)" style="fill: rgb(243, 146, 8); white-space: pre;"/>
</svg>